# xmcd
#
# Track frame offsets:
#	150
#	18472
#	35455
#	50372
#	63909
#	78168
#	94380
#	111578
#	123755
#	142984
#	158845
#	178615
#
# Disc length: 2603 seconds
# Revision: 1
# Processed by: cddbd v1.5.2PL0 Copyright (c) Steve Scherf et al.
# Submitted via: dBpowerAMP V12.0
#
DISCID=980a290c
DTITLE=Rissi Palmer - Rissi Palmer
DYEAR=2007
DGENRE=Country
TTITLE0=Hold On To Me
TTITLE1=Country Girl
TTITLE2=Anybody Out There
TTITLE3=Hurt Don't Know When To Quit
TTITLE4=Mr. Ooh La La
TTITLE5=All This Woman Needs
TTITLE6=Flowers On My Window Ledge
TTITLE7=Leavin' On Your Mind
TTITLE8=Butterflies
TTITLE9=Sweet Contradictions
TTITLE10=Love You Like A Woman
TTITLE11=I'm Not Of This World
EXTD=
EXTT0=
EXTT1=
EXTT2=
EXTT3=
EXTT4=
EXTT5=
EXTT6=
EXTT7=
EXTT8=
EXTT9=
EXTT10=
EXTT11=
PLAYORDER=
